<?xml version="1.0" encoding="UTF-8" standalone="no"?>
<!-- Created with Inkscape (http://www.inkscape.org/) -->

<svg
   width="512"
   height="512"
   viewBox="0 0 135.46666 135.46667"
   version="1.1"
   id="svg2938"
   xml:space="preserve"
   inkscape:version="1.2.2 (b0a8486541, 2022-12-01)"
   sodipodi:docname="dll.svg"
   xmlns:inkscape="http://www.inkscape.org/namespaces/inkscape"
   xmlns:sodipodi="http://sodipodi.sourceforge.net/DTD/sodipodi-0.dtd"
   xmlns="http://www.w3.org/2000/svg"
   xmlns:svg="http://www.w3.org/2000/svg"><sodipodi:namedview
     id="namedview2940"
     pagecolor="#ffffff"
     bordercolor="#000000"
     borderopacity="0.25"
     inkscape:showpageshadow="2"
     inkscape:pageopacity="0.0"
     inkscape:pagecheckerboard="0"
     inkscape:deskcolor="#d1d1d1"
     inkscape:document-units="mm"
     showgrid="false"
     showguides="true"
     inkscape:zoom="1.2301834"
     inkscape:cx="322.30967"
     inkscape:cy="371.89577"
     inkscape:window-width="1854"
     inkscape:window-height="1131"
     inkscape:window-x="66"
     inkscape:window-y="32"
     inkscape:window-maximized="1"
     inkscape:current-layer="layer1"><sodipodi:guide
       position="6.2919869,-52.3385"
       orientation="1,0"
       id="guide3071"
       inkscape:locked="false" /><sodipodi:guide
       position="129.05873,-43.678081"
       orientation="1,0"
       id="guide3073"
       inkscape:locked="false" /><sodipodi:guide
       position="152.94106,-44.157487"
       orientation="0.5,0.8660254"
       id="guide3075"
       inkscape:locked="false"
       inkscape:label=""
       inkscape:color="rgb(0,134,229)" /><sodipodi:guide
       position="144.23076,48.818012"
       orientation="-0.5,0.8660254"
       id="guide3077"
       inkscape:locked="false"
       inkscape:label=""
       inkscape:color="rgb(0,134,229)" /><sodipodi:guide
       position="67.810519,-43.919596"
       orientation="-1,0"
       id="guide7971"
       inkscape:locked="false"
       inkscape:label=""
       inkscape:color="rgb(0,134,229)" /><sodipodi:guide
       position="149.47605,1.4963886"
       orientation="0.5,0.8660254"
       id="guide7973"
       inkscape:locked="false"
       inkscape:label=""
       inkscape:color="rgb(0,134,229)" /><sodipodi:guide
       position="126.70515,82.65969"
       orientation="-0.5,0.8660254"
       id="guide8037"
       inkscape:locked="false"
       inkscape:label=""
       inkscape:color="rgb(0,134,229)" /><sodipodi:guide
       position="80.62222,45.58873"
       orientation="0,-1"
       id="guide8039"
       inkscape:locked="false" /></sodipodi:namedview><defs
     id="defs2935"><linearGradient
       id="linearGradient1580"
       inkscape:swatch="solid"><stop
         style="stop-color:#7e203c;stop-opacity:1;"
         offset="0"
         id="stop1578" /></linearGradient></defs><g
     inkscape:label="Layer 1"
     inkscape:groupmode="layer"
     id="layer1"><path
       id="path3198"
       style="fill:#71b068;stroke:none;stroke-width:0.558;stroke-dasharray:none;fill-opacity:1"
       inkscape:label="square"
       d="m 67.733037,17.461784 -6.253557,3.411032 v 5.312207 c 0.375083,0.274507 1.643619,1.052661 6.297428,1.08218 4.671857,0.02963 5.880197,-0.76955 6.210268,-1.029657 V 20.873393 Z M 40.48114,32.326613 27.972867,39.149255 v 3.361398 c 0.374805,0.274373 1.642991,1.052661 6.297424,1.08218 4.671861,0.02963 5.88078,-0.769552 6.210849,-1.029659 z m 55.034208,0.289159 v 9.894881 c 0.37654,0.275197 1.64749,1.052683 6.298002,1.08218 4.67188,0.02963 5.88022,-0.769552 6.21029,-1.029659 v -3.12476 z M 14.390493,46.557718 6.3050188,50.968397 v 44.67472 L 67.733037,129.14972 129.16165,95.643117 v -44.67472 l -7.75707,-4.231181 c -0.49076,1.655373 -1.3865,3.713394 -3.01683,5.387238 -3.29952,3.387594 -8.81078,5.479173 -16.66155,5.429371 -5.935372,-0.03765 -10.483768,-1.228006 -13.778034,-3.254621 v 8.605494 c 0,0 -0.297369,4.967428 -3.596873,8.355009 -3.299527,3.387581 -8.810774,5.476881 -16.661535,5.427068 -7.863892,-0.04992 -13.304191,-2.111771 -16.600364,-5.479584 -1.648086,-1.683906 -2.612485,-3.580522 -3.084359,-5.115392 -0.471872,-1.534881 -0.484816,-3.298488 -0.484816,-3.298488 l -0.0018,0.214128 v -8.398298 c -3.275918,1.872441 -7.676533,2.980581 -13.335349,2.944684 -7.863884,-0.04988 -13.304185,-2.114082 -16.600358,-5.481892 -1.648087,-1.683905 -2.612485,-3.578208 -3.084359,-5.113087 -0.04063,-0.132168 -0.07383,-0.266841 -0.107924,-0.401128 z m 53.325232,1.882129 c -4.652557,-0.01106 -5.883987,0.753859 -6.236822,1.014651 V 61.64591 c 0.375082,0.274505 1.644196,1.05269 6.298005,1.082176 4.671857,0.0296 5.880197,-0.769544 6.210268,-1.029654 V 49.471813 c -0.373082,-0.267148 -1.63138,-1.020909 -6.271451,-1.031966 z" /><g
       id="path3200"
       inkscape:label="4dots"
       transform="matrix(1.1168783,0,0,1.1168783,-49.538952,-49.550865)"
       style="fill:#71cd68;fill-opacity:1;stroke-width:1.00010896;stroke-dasharray:none"><path
         style="color:#000000;display:inline;fill:#71b068;fill-opacity:1;stroke-width:1.00010896;paint-order:stroke fill markers;stroke-dasharray:none"
         d="m 63.15,70.354167 v 13.291667 c 0,0 -0.179939,5.923691 11.85,6 11.938222,0.07573 11.85,-6 11.85,-6 V 70.354167 c 0,0 0.268764,-5.971194 -11.85,-6 -12.078622,-0.02871 -11.85,6 -11.85,6 z m 60.47434,0 v 13.291667 c 0,0 -0.17994,5.923691 11.85,6 11.93822,0.07573 11.85,-6 11.85,-6 V 70.354167 c 0,0 0.26876,-5.971194 -11.85,-6 -12.07862,-0.02871 -11.85,6 -11.85,6 z M 93.15,55.736729 v 13.291667 c 0,0 -0.179939,5.923691 11.85,6 11.93822,0.07573 11.85,-6 11.85,-6 V 55.736729 c 0,0 0.26876,-5.971194 -11.85,-6 -12.078622,-0.02871 -11.85,6 -11.85,6 z m 2e-6,31.75 v 13.291681 c 0,0 -0.17994,5.92369 11.849998,6 11.93822,0.0757 11.85,-6 11.85,-6 V 87.486729 c 0,0 0.26877,-5.971194 -11.85,-6 -12.07862,-0.02871 -11.849998,6 -11.849998,6 z"
         id="path2971"
         inkscape:label="dots" /></g></g></svg>
