<?xml version="1.0" encoding="UTF-8" standalone="no"?>
<!--part of the matt icon theme by sixsixfive released under CC0 (https://creativecommons.org/publicdomain/zero/1.0/) on openclipart-->

<svg
   viewBox="0 0 128 128"
   version="1.1"
   id="svg43"
   sodipodi:docname="mpq.svg"
   inkscape:export-filename="matt-icons_package-1.png"
   inkscape:export-xdpi="384"
   inkscape:export-ydpi="384"
   inkscape:version="1.2.2 (b0a8486541, 2022-12-01)"
   xmlns:inkscape="http://www.inkscape.org/namespaces/inkscape"
   xmlns:sodipodi="http://sodipodi.sourceforge.net/DTD/sodipodi-0.dtd"
   xmlns:xlink="http://www.w3.org/1999/xlink"
   xmlns="http://www.w3.org/2000/svg"
   xmlns:svg="http://www.w3.org/2000/svg">
  <sodipodi:namedview
     id="namedview45"
     pagecolor="#ffffff"
     bordercolor="#000000"
     borderopacity="0.25"
     inkscape:showpageshadow="2"
     inkscape:pageopacity="0.0"
     inkscape:pagecheckerboard="0"
     inkscape:deskcolor="#d1d1d1"
     showgrid="false"
     inkscape:zoom="5.4329852"
     inkscape:cx="71.323588"
     inkscape:cy="60.832118"
     inkscape:window-width="1854"
     inkscape:window-height="1131"
     inkscape:window-x="66"
     inkscape:window-y="32"
     inkscape:window-maximized="1"
     inkscape:current-layer="svg43" />
  <defs
     id="0">
    <inkscape:path-effect
       effect="perspective-envelope"
       up_left_point="67.127239,73.688652"
       up_right_point="121.55932,76.915618"
       down_left_point="67.127239,96.917851"
       down_right_point="121.55932,93.690885"
       id="path-effect2632"
       is_visible="true"
       lpeversion="1"
       deform_type="perspective"
       horizontal_mirror="true"
       vertical_mirror="false"
       overflow_perspective="false" />
    <linearGradient
       id="D">
      <stop
         id="T" />
      <stop
         id="U"
         offset="1"
         stop-opacity="0" />
    </linearGradient>
    <linearGradient
       id="E">
      <stop
         id="V"
         stop-color="#fff" />
      <stop
         id="W"
         offset="1"
         stop-color="#eddabc" />
    </linearGradient>
    <linearGradient
       id="F">
      <stop
         id="X"
         stop-color="#c29650" />
      <stop
         id="Y"
         offset="1"
         stop-color="#cca86e" />
    </linearGradient>
    <linearGradient
       id="G">
      <stop
         id="Z"
         stop-color="#a37a39" />
      <stop
         id="a"
         offset="1"
         stop-color="#c39854" />
    </linearGradient>
    <linearGradient
       id="H">
      <stop
         id="b"
         stop-color="#eddabc" />
      <stop
         id="c"
         offset="1"
         stop-color="#d8af6e" />
    </linearGradient>
    <radialGradient
       cx="211.15"
       cy="382.63"
       r="110.72"
       id="I"
       xlink:href="#H"
       gradientUnits="userSpaceOnUse"
       gradientTransform="matrix(0.13337487,-0.58579661,0.43334796,0.09866518,-140.53171,197.47031)" />
    <radialGradient
       cx="445.36"
       cy="201.93"
       r="119.48"
       id="J"
       xlink:href="#G"
       gradientUnits="userSpaceOnUse"
       gradientTransform="matrix(-0.37117278,0.14517548,-0.14805715,-0.37854038,312.3712,40.739168)" />
    <radialGradient
       cx="139.26"
       cy="162.96"
       r="134.88"
       id="K"
       xlink:href="#E"
       gradientUnits="userSpaceOnUse"
       gradientTransform="matrix(0.50693897,-0.129967,0.0262165,0.10225801,-39.663475,32.07396)" />
    <radialGradient
       cx="212.44"
       cy="280.07"
       r="228.86"
       id="L"
       xlink:href="#F"
       gradientUnits="userSpaceOnUse"
       gradientTransform="matrix(0.03919011,-0.09570432,0.16373591,0.06704846,-2.2215551,38.191936)" />
    <filter
       color-interpolation-filters="sRGB"
       id="M"
       x="-0.021161879"
       y="-0.022590895"
       width="1.0423238"
       height="1.0451818">
      <feGaussianBlur
         stdDeviation="1.84125"
         id="d" />
    </filter>
    <filter
       color-interpolation-filters="sRGB"
       id="N"
       x="-0.15687688"
       y="-0.10123229"
       width="1.3137538"
       height="1.2024646">
      <feGaussianBlur
         stdDeviation="1.0013"
         id="e" />
    </filter>
    <linearGradient
       x1="48.3"
       y1="135.17"
       x2="72.26"
       y2="131"
       id="O"
       xlink:href="#D"
       gradientUnits="userSpaceOnUse" />
  </defs>
  <path
     d="m 55.132413,114.01574 13.842394,0 1.476115,23.73867 -13.842394,0 -1.476115,-23.73867 z"
     transform="matrix(0.85693077,-0.4706646,0.46259458,0.87188005,2.2336477,0.32237861)"
     id="1"
     opacity="0.425"
     fill="url(#O)"
     filter="url(#N)" />
  <path
     d="M 96.675414,14.344852 C 67.689599,27.185172 40.560433,41.085059 11.680603,54.183529 -7.6075114,79.672109 -26.168705,102.04586 -45.214473,127.6876 c 0.151729,2.90509 3.743817,4.43623 5.153803,6.80723 23.015547,25.23201 45.5168287,50.39807 68.676681,75.4598 6.224828,-0.31571 11.138232,-0.98651 17.378335,-1.83048 25.938049,-4.60892 51.976105,-8.89435 77.851984,-13.70442 3.21252,-5.55585 5.23055,-11.94584 8.01672,-17.79829 10.53597,-24.6053 21.42572,-49.1107 31.74136,-73.77824 -2.53772,-4.898976 -7.63337,-7.674135 -10.69436,-12.340782 C 134.45608,65.22696 116.26812,39.698472 97.648395,14.58068 c -2.439828,2.765187 -2.727177,2.05986 -0.972981,-0.235828 z"
     transform="matrix(0.48733016,0.40593889,-0.40593889,0.48733016,80.572751,-24.561254)"
     id="2"
     opacity="0.637"
     filter="url(#M)" />
  <path
     d="m 97.75,12.875 a 1.6878972,1.6878972 0 0 0 -0.59375,0.15625 L 11.375,51.65625 a 1.6878972,1.6878972 0 0 0 -0.65625,0.5 L -46.5625,127.875 a 1.6878972,1.6878972 0 0 0 0.09375,2.15625 l 73.1875,80.65625 a 1.6878972,1.6878972 0 0 0 1.53125,0.53125 l 94.96875,-16.5625 a 1.6878972,1.6878972 0 0 0 1.28125,-1 L 163.46875,103.5 a 1.6878972,1.6878972 0 0 0 -0.1875,-1.65625 L 99.21875,13.5625 A 1.6878972,1.6878972 0 0 0 97.75,12.875 z"
     transform="matrix(0.48733016,0.40593889,-0.40593889,0.48733016,80.572751,-24.960797)"
     id="3"
     fill="#debd87" />
  <path
     d="M 6.2472459,20.340269 9.1332307,88.517696 61.715239,118.75711 62.4297,40.768071 6.2472459,20.340269 z"
     id="4"
     fill="url(#I)" />
  <path
     d="m 122.34471,21.870475 -59.789046,18.790616 -0.840425,78.096019 0.428141,0.24578 55.57899,-28.130421 4.62234,-69.001994 z"
     id="5"
     fill="url(#J)" />
  <path
     d="M 64.854937,5.8469168 6.2155318,19.507773 l 0.031714,0.832496 56.3084182,20.320822 59.789046,-18.790616 0,-0.0079 L 64.854937,5.8469295 z"
     id="6"
     fill="url(#L)" />
  <path
     d="M 6.0980104,19.74213 62.671811,40.820785 122.74052,21.708015"
     id="7"
     fill="none"
     stroke="#debc85"
     stroke-width="1.123" />
  <path
     d="M 62.562595,40.820785 62.125732,119.45619"
     id="8"
     fill="none"
     stroke="#debc85"
     stroke-width="1.123" />
  <path
     d="M 34.37719,29.724231 91.556048,13.211371"
     id="B"
     opacity="0.708"
     fill="#eddabc"
     stroke="#000"
     stroke-width="0.381" />
  <path
     d="m 88.344436,11.310762 -58.335387,16.529896 -0.412283,9.157452 1.339921,-0.451926 -1.062423,1.070351 0.0555,0.02377 1.974204,-0.745282 -0.261642,1.228922 1.220994,-0.523283 -0.420212,0.91971 0.03171,0.01586 1.355779,-0.80871 0.08721,1.268565 0.832496,-0.737354 0.475712,0.911781 0.792853,-0.436069 0.261641,1.054495 0.959352,-0.880067 c 0,0 0.119342,0.225878 0.150642,0.285427 l 0.467784,-7.524162 60.182279,-17.663351 -9.696137,-2.696025 z"
     id="C"
     opacity="0.708"
     fill="url(#K)" />
  <g
     aria-label="MPQ"
     id="text1010"
     style="font-size:26.6667px;display:inline;fill:none;stroke:#000000;stroke-width:1.88976"
     inkscape:path-effect="#path-effect2632"
     transform="matrix(0.83113429,-0.29691509,0.01004475,0.82766729,13.219739,26.603518)">
    <path
       d="m 67.127265,74.040219 5.140117,0.295505 6.131917,12.820553 5.779245,-12.135783 4.294122,0.246868 v 17.322064 l -2.786754,0.116314 0,-15.453281 -5.711317,12.199737 -3.16209,0.07166 -6.316601,-12.377747 0.0093,16.193243 -3.377969,0.140991 z"
       style="font-family:'DejaVu Sans';-inkscape-font-specification:'DejaVu Sans, Normal';fill:#57401e;stroke:#57401e"
       id="path2625"
       inkscape:original-d="m 67.127239,74.040218 h 3.919276 l 4.960943,13.229183 4.986986,-13.229183 3.919276,0 v 19.440129 h -2.565108 l 0,-17.070334 -5.013027,13.33335 h -2.643233 l -5.020198,-12.739962 0.0072,16.476946 H 67.12722 Z"
       sodipodi:nodetypes="cccccccccccccc" />
    <path
       d="m 96.483357,77.565478 v 6.210146 l 3.158433,0.02897 c 1.13871,0.01044 2.00817,-0.24259 2.61679,-0.756073 0.60404,-0.509625 0.90436,-1.241167 0.90436,-2.197493 0,-0.949241 -0.30032,-1.693948 -0.90436,-2.237175 -0.60862,-0.547339 -1.47808,-0.848741 -2.61679,-0.901642 z m -2.60035,-1.987077 5.758783,0.331071 c 2.01611,0.115906 3.50557,0.605356 4.49619,1.462443 0.98601,0.839876 1.47445,2.01972 1.47445,3.547324 0,1.541555 -0.48844,2.701235 -1.47445,3.486326 -0.99062,0.794961 -2.48008,1.198012 -4.49619,1.201764 l -3.158433,0.0059 v 6.641867 l -2.60035,0.108534 z"
       style="font-family:'DejaVu Sans';-inkscape-font-specification:'DejaVu Sans, Normal';fill:#57401e;stroke:#57401e"
       id="path2627"
       inkscape:original-d="m 92.765291,76.201679 v 7.304697 h 3.307296 q 1.83594,0 2.838546,-0.950522 1.002605,-0.950522 1.002605,-2.708337 0,-1.744794 -1.002605,-2.695316 -1.002606,-0.950522 -2.838546,-0.950522 z M 90.13508,74.040218 h 5.937507 q 3.268234,0 4.934903,1.484377 1.67969,1.471356 1.67969,4.322922 0,2.877608 -1.67969,4.348964 -1.666669,1.471356 -4.934903,1.471356 h -3.307296 v 7.81251 H 90.13508 Z" />
    <path
       d="m 114.95407,78.138149 c -1.48429,-0.07182 -2.6864,0.41782 -3.59197,1.479473 -0.90943,1.074698 -1.36825,2.576438 -1.36825,4.495526 0,1.912305 0.45882,3.417821 1.36825,4.506723 0.90557,1.075797 2.10768,1.584208 3.59197,1.535574 1.45512,-0.04768 2.58589,-0.613373 3.40666,-1.688607 0.81786,-1.063264 1.22333,-2.486639 1.22333,-4.279116 0,-1.798835 -0.40547,-3.231721 -1.22333,-4.307758 -0.82077,-1.088054 -1.95154,-1.671409 -3.40666,-1.741815 z m 2.78232,12.969115 2.5215,2.660775 -2.30958,0.136922 -2.15734,-2.21109 c -0.21827,0.02254 -0.38738,0.03971 -0.50699,0.05146 -0.11313,0.01148 -0.22311,0.01956 -0.32991,0.02423 -2.13447,0.0932 -3.88687,-0.537313 -5.22824,-1.911533 -1.35797,-1.405697 -2.04602,-3.332908 -2.04602,-5.762875 0,-2.43685 0.68805,-4.353331 2.04602,-5.731056 1.34137,-1.360093 3.09377,-1.966605 5.22824,-1.840064 2.06817,0.12261 3.68031,0.893213 4.86468,2.296877 1.1651,1.374533 1.74057,3.163022 1.74057,5.382171 0,1.629884 -0.32083,3.029052 -0.96688,4.205491 -0.64572,1.187019 -1.59375,2.086633 -2.85605,2.698691 z"
       style="font-family:'DejaVu Sans';-inkscape-font-specification:'DejaVu Sans, Normal';fill:#57401e;stroke:#57401e"
       id="path2629"
       inkscape:original-d="m 114.10647,75.824074 q -2.86459,0 -4.5573,2.13542 -1.67969,2.135419 -1.67969,5.82032 0,3.671879 1.67969,5.807299 1.69271,2.135419 4.5573,2.135419 2.86458,0 4.53125,-2.135419 1.67969,-2.13542 1.67969,-5.807299 0,-3.684901 -1.67969,-5.82032 -1.66667,-2.13542 -4.53125,-2.13542 z m 3.6849,17.30471 3.46354,3.789067 h -3.17708 l -2.87761,-3.111983 q -0.42969,0.02604 -0.66407,0.03906 -0.22135,0.01302 -0.42968,0.01302 -4.10157,0 -6.56251,-2.734378 -2.44792,-2.747399 -2.44792,-7.343759 0,-4.609381 2.44792,-7.34376 2.46094,-2.747399 6.56251,-2.747399 4.08854,0 6.53646,2.747399 2.44792,2.734379 2.44792,7.34376 0,3.385421 -1.36719,5.794278 -1.35417,2.408857 -3.93229,3.554692 z" />
  </g>
</svg>
