<?xml version="1.0" encoding="UTF-8" standalone="no"?>
<!-- Created with Inkscape (http://www.inkscape.org/) -->

<svg
   width="512"
   height="512"
   viewBox="0 0 135.46666 135.46667"
   version="1.1"
   id="svg5018"
   xml:space="preserve"
   inkscape:version="1.2.2 (b0a8486541, 2022-12-01)"
   sodipodi:docname="mpqdraft.svg"
   xmlns:inkscape="http://www.inkscape.org/namespaces/inkscape"
   xmlns:sodipodi="http://sodipodi.sourceforge.net/DTD/sodipodi-0.dtd"
   xmlns="http://www.w3.org/2000/svg"
   xmlns:svg="http://www.w3.org/2000/svg"><sodipodi:namedview
     id="namedview5020"
     pagecolor="#ffffff"
     bordercolor="#000000"
     borderopacity="0.25"
     inkscape:showpageshadow="2"
     inkscape:pageopacity="0.0"
     inkscape:pagecheckerboard="0"
     inkscape:deskcolor="#d1d1d1"
     inkscape:document-units="mm"
     showgrid="false"
     inkscape:zoom="1"
     inkscape:cx="218.5"
     inkscape:cy="230.5"
     inkscape:window-width="1854"
     inkscape:window-height="1131"
     inkscape:window-x="66"
     inkscape:window-y="32"
     inkscape:window-maximized="1"
     inkscape:current-layer="layer2" /><defs
     id="defs5015"><filter
       style="color-interpolation-filters:sRGB;"
       inkscape:label="Blur"
       id="filter1156"
       x="-1.0244937"
       y="-1.2721898"
       width="3.0489874"
       height="3.5443796"><feGaussianBlur
         stdDeviation="50 50"
         result="blur"
         id="feGaussianBlur1154" /></filter><filter
       style="color-interpolation-filters:sRGB;"
       inkscape:label="Blur"
       id="filter3929"
       x="-0.43258514"
       y="-0.53724563"
       width="1.8652134"
       height="2.074477"><feGaussianBlur
         stdDeviation="19.031092"
         result="blur"
         id="feGaussianBlur3927" /></filter><filter
       inkscape:collect="always"
       style="color-interpolation-filters:sRGB"
       id="filter5753"
       x="-0.041961571"
       y="-0.052127866"
       width="1.0839364"
       height="1.1042523"><feGaussianBlur
         inkscape:collect="always"
         stdDeviation="1.5277738"
         id="feGaussianBlur5755" /></filter></defs><g
     inkscape:groupmode="layer"
     id="layer3"
     inkscape:label="bg"><rect
       style="display:inline;fill:#000000;stroke:none;stroke-width:0.499999"
       id="rect414"
       width="136.41423"
       height="136.07611"
       x="-0.53661793"
       y="-0.32058024"
       inkscape:label="bg" /></g><g
     inkscape:groupmode="layer"
     id="layer2"
     inkscape:label="QD"><path
       d="m 49.094741,114.47501 c 0.22717,-0.24611 0.8006,-1.14552 1.27427,-1.99869 1.46844,-2.64494 3.91874,-6.84808 5.91282,-10.1426 1.27621,-2.10848 1.54955,-2.733898 1.54966,-3.545748 5e-5,-0.37507 -0.0765,-0.91203 -0.17011,-1.19324 -0.0936,-0.28122 -0.55274,-1.746315 -1.02028,-3.255773 -0.46753,-1.509459 -0.89581,-2.851862 -0.95173,-2.98312 -0.0559,-0.131257 -0.43645,-1.366269 -0.84562,-2.74447 -0.40918,-1.378201 -0.83662,-2.801149 -0.94988,-3.162107 -0.11326,-0.360957 -0.29151,-0.951615 -0.39612,-1.312572 -0.10461,-0.360958 -0.38046,-1.29402 -0.61299,-2.073472 -0.60454,-2.026407 -0.60674,-2.013288 0.4935,-2.941094 1.69245,-1.427199 2.12051,-1.813138 3.49872,-3.154483 2.38719,-2.323319 4.95383,-5.235561 6.26924,-7.11339 0.24943,-0.356081 0.65444,-0.915901 0.90001,-1.244044 1.17028,-1.563782 3.29095,-5.333901 4.22853,-7.517461 0.30997,-0.721915 0.68912,-1.591251 0.84256,-1.931859 0.52469,-1.16475 1.45777,-4.152381 1.819,-5.824254 0.75396,-3.489603 0.73527,-6.767939 -0.0575,-10.082944 -0.95613,-3.998072 -4.16373,-8.207165 -8.09525,-10.622795 -2.19913,-1.3512 -4.6335,-2.153751 -8.17375,-2.694678 -1.64821,-0.251836 -5.76792,-0.286466 -7.87544,-0.0662 -7.00599,0.732228 -13.58154,3.160652 -18.972637,7.006805 -3.49263,2.491738 -7.2197,6.122669 -9.995594,9.737765 -2.179852,2.838859 -4.59494,7.020981 -5.811253,10.063141 -0.183677,0.459401 -0.42706,1.050059 -0.540851,1.312573 -0.430427,0.992991 -1.5180794,4.719601 -1.7761404,6.085565 -0.336281,1.780005 -0.3965456,2.42764 -0.4552496,4.892316 -0.08009,3.362436 0.09449,4.738464 0.998616,7.871088 2.023004,7.009337 8.046572,11.61804 16.163624,12.366978 3.392395,0.313007 7.412245,-0.01023 10.687935,-0.85942 0.7348,-0.190489 1.43908,-0.346342 1.56507,-0.346342 0.28888,0 0.39971,0.298561 2.104,5.667927 0.22914,0.721915 0.62917,2.010623 0.88896,2.863795 0.25979,0.853172 0.90886,2.974165 1.44239,4.713323 0.53353,1.73916 1.03974,3.40374 1.12492,3.69907 0.15089,0.52315 0.62419,2.05402 1.38344,4.47468 0.20585,0.65629 0.58582,1.8913 0.84438,2.74447 0.52315,1.72622 0.99649,3.00583 1.21706,3.29009 0.45259,0.58332 0.96605,0.59061 1.49169,0.0212 z m -1.09262,-2.86379 c -0.78587,-2.39787 -5.05558,-16.273292 -6.93059,-22.522552 -0.63011,-2.100116 -1.19536,-3.93643 -1.25611,-4.080697 l -0.11046,-0.262305 -0.70804,0.287704 c -1.14391,0.464812 -3.39738,1.114053 -4.95482,1.427517 -4.46545,0.898759 -9.310481,0.583288 -13.017213,-0.84758 -5.663163,-2.186089 -9.146825,-6.527363 -10.3501,-12.898103 -0.359949,-1.905746 -0.387598,-5.975461 -0.05414,-7.968792 2.265517,-13.542686 12.471405,-26.369471 25.135853,-31.590796 7.18987,-2.964258 15.18274,-3.851012 21.3856,-2.372584 3.47832,0.829045 6.50788,2.723473 8.89806,5.56408 2.14767,2.552396 3.17108,4.714533 3.66952,7.752553 0.84121,5.127181 -0.27784,10.276068 -3.73525,17.186328 -1.33628,2.670783 -3.52829,6.095408 -5.37229,8.393225 -2.10006,2.6169 -5.61802,6.130084 -8.43849,8.427035 -0.78754,0.641364 -1.4781,1.208708 -1.53457,1.260765 -0.0565,0.05205 0.0691,0.676686 0.27902,1.388067 1.30753,4.430628 2.93938,9.834402 4.03004,13.345224 0.86791,2.793783 1.26248,4.244563 1.26719,4.659273 0.006,0.57185 -0.10504,0.79166 -2.2101,4.355358 -1.21932,2.06421 -2.88639,4.90758 -3.70459,6.3186 -1.76637,3.04618 -1.80091,3.10244 -1.90462,3.10244 -0.0445,0 -0.21721,-0.41614 -0.3839,-0.92476 z M 36.024981,75.122761 c 0.63988,-0.117071 1.16341,-0.263802 1.16341,-0.326068 0,-0.06227 -0.37108,-1.328825 -0.82462,-2.814575 -2.26328,-7.414236 -3.60222,-12.137348 -3.50937,-12.379318 0.039,-0.101543 0.20126,-0.234206 0.36066,-0.294806 0.47082,-0.179009 11.28304,-0.142443 11.52383,0.03897 0.1618,0.121903 1.6925,5.361544 2.87791,9.851139 l 0.13571,0.513975 0.73784,-0.667717 c 1.93227,-1.748599 4.27451,-5.346337 5.53797,-8.506424 0.50572,-1.264894 0.89792,-2.598322 1.20138,-4.0846 0.34477,-1.688548 0.36907,-4.407615 0.0517,-5.787253 -0.73757,-3.206487 -3.08138,-5.796091 -6.04121,-6.674757 -2.37813,-0.705979 -6.02004,-0.376132 -9.27488,0.840024 -6.04524,2.258773 -10.99135,6.911917 -14.18444,13.344256 -1.597271,3.217635 -2.244063,5.743002 -2.233001,8.718649 0.0076,2.038714 0.22755,3.117585 0.895652,4.392817 0.463988,0.885632 1.932439,2.403118 2.781246,2.874115 0.787153,0.436787 2.433183,0.984901 3.400753,1.132426 1.11904,0.170619 4.03787,0.07826 5.39945,-0.170855 z m -5.04147,-1.205841 c -2.25063,-0.30186 -4.386231,-1.662961 -5.217904,-3.325563 -0.731217,-1.461784 -0.808673,-1.848946 -0.799323,-3.995411 0.0079,-1.813022 0.03811,-2.079381 0.381677,-3.365213 1.340509,-5.016934 4.56616,-9.817271 9.21529,-13.713978 1.94723,-1.632089 5.50638,-3.324284 8.53172,-4.056404 1.56613,-0.378997 4.52707,-0.382341 5.72759,-0.0065 2.61458,0.818603 4.34556,2.616992 5.01682,5.212203 0.49887,1.928691 0.29701,5.136286 -0.48435,7.69645 -0.77849,2.550766 -2.74694,6.187431 -4.12332,7.617736 -0.40837,0.424367 -0.52467,0.489023 -0.6439,0.357975 -0.21268,-0.233771 -0.55661,-1.285451 -1.32055,-4.037993 -1.03757,-3.738404 -1.13787,-3.942753 -2.14097,-4.361875 -0.41383,-0.172908 -1.17686,-0.199044 -6.26292,-0.214513 -6.40936,-0.01949 -6.39722,-0.02075 -7.05418,0.727482 -0.3724,0.424139 -0.37822,0.449091 -0.31139,1.335119 0.0738,0.979015 0.48844,2.521462 1.99068,7.406103 0.53486,1.739159 1.05199,3.457436 1.14916,3.818393 0.38839,1.442685 0.64156,2.435769 0.64156,2.516621 0,0.286934 -3.01905,0.560564 -4.29569,0.389336 z m 47.96856,16.018558 c 5.71653,-0.04709 7.09174,-0.129522 9.12834,-0.547167 0.32815,-0.06729 0.90359,-0.17655 1.27877,-0.242793 0.7723,-0.136362 4.25961,-1.25846 5.16477,-1.661847 0.86507,-0.385521 3.637841,-1.756597 4.057041,-2.006124 0.19689,-0.117195 0.73385,-0.434841 1.19325,-0.70588 3.735128,-2.203678 8.288458,-6.202722 11.999668,-10.538934 1.0604,-1.238981 3.46981,-4.372408 4.33199,-5.633744 0.86682,-1.268111 2.46199,-3.769058 2.46199,-3.859964 0,-0.03136 0.13291,-0.267561 0.29535,-0.524891 0.57011,-0.90311 2.56083,-4.930976 3.29415,-6.66511 2.75961,-6.525882 3.89676,-11.29734 4.11448,-17.264194 0.23743,-6.507427 -1.25593,-11.4951 -4.40519,-14.712853 -1.15288,-1.177959 -1.82062,-1.674041 -3.29879,-2.450788 -3.0517,-1.603596 -6.12554,-2.269632 -11.45518,-2.482095 -3.52767,-0.140628 -15.220689,-0.04625 -16.460559,0.13286 -1.61326,0.233046 -2.77281,0.90953 -3.58671,2.092494 -0.44111,0.641137 -1.57969,2.926001 -2.31846,4.65263 -0.30888,0.721915 -0.66953,1.549455 -0.80143,1.838976 -0.32658,0.716817 -1.41133,3.208443 -1.58903,3.649964 -0.0792,0.196886 -0.23767,0.572759 -0.35206,0.835274 -0.11439,0.262514 -0.50483,1.175349 -0.86765,2.028521 -0.80847,1.901124 -2.48706,5.733051 -3.73735,8.531722 -1.10402,2.471246 -2.23736,5.060203 -3.57814,8.173748 -0.53697,1.246944 -1.27259,2.938373 -1.63471,3.758731 -0.92775,2.101754 -1.31841,2.990742 -2.35965,5.369616 -0.5027,1.148501 -1.04934,2.381402 -1.21476,2.73978 -0.16542,0.358376 -0.8542,1.942413 -1.53064,3.520081 -0.67643,1.577667 -1.61669,3.727624 -2.08945,4.777682 -0.47276,1.050058 -1.18267,2.660942 -1.57757,3.579743 -0.5727,1.332472 -2.78824,6.285735 -4.2965,9.605646 -0.72486,1.595513 -0.86798,2.629837 -0.45712,3.303647 0.29082,0.476963 0.60342,0.645666 1.36971,0.7392 0.59462,0.07258 7.49324,0.06021 18.92144,-0.03393 z m -18.78148,-1.448302 c -0.0965,-0.09654 -0.20745,-0.276096 -0.24646,-0.399008 -0.0459,-0.144638 1.0509,-2.764853 3.10901,-7.427262 1.74896,-3.962081 3.86434,-8.760973 4.70085,-10.664203 0.8365,-1.903231 2.71508,-6.172075 4.17463,-9.486321 1.45954,-3.314247 3.20517,-7.287762 3.87918,-8.830035 2.69923,-6.176417 9.55075,-21.592478 11.28659,-25.395076 0.54894,-1.202523 1.17576,-2.39399 1.39293,-2.647704 0.21717,-0.253713 0.68866,-0.605046 1.04776,-0.780739 0.59631,-0.291745 0.83139,-0.32804 2.71157,-0.418654 2.92657,-0.141043 16.662259,-0.134409 18.585129,0.009 4.40805,0.328702 7.57024,1.590418 9.94808,3.969296 1.92345,1.924283 3.23077,4.62516 3.83867,7.930572 0.261,1.419165 0.3597,5.194563 0.18689,7.149 -0.52279,5.91276 -2.28184,11.750124 -5.49612,18.238756 -3.26174,6.584435 -7.27045,12.220588 -12.17879,17.123107 -6.53349,6.525758 -13.701779,10.462775 -20.760309,11.402119 -1.8635,0.247994 -3.31732,0.280494 -15.47803,0.346005 -9.15725,0.04933 -10.54887,0.03388 -10.70158,-0.118826 z m 26.78812,-12.529882 c 4.14043,-0.660158 8.08961,-2.959467 11.947121,-6.955894 8.020578,-8.309424 12.802398,-22.343881 9.581508,-28.121349 -1.43123,-2.567276 -3.31143,-3.605893 -6.74425,-3.725504 -2.169318,-0.07559 -4.530808,0.116033 -4.726398,0.383519 -0.0798,0.109173 -0.533311,1.094034 -1.007731,2.18858 -0.47442,1.094544 -2.04302,4.674889 -3.48578,7.956321 -1.44276,3.281431 -2.98647,6.79853 -3.43046,7.815773 -2.43656,5.582429 -4.39246,10.038967 -6.44145,14.67695 -1.26123,2.854845 -2.36772,5.363052 -2.45888,5.573793 l -0.16572,0.383165 1.04375,0.04825 c 1.72373,0.07968 4.69342,-0.03309 5.88829,-0.223602 z m -4.12042,-1.39815 c -0.22605,-0.172518 -0.22393,-0.194049 0.10989,-1.116266 0.3799,-1.049529 1.88972,-4.64375 2.51726,-5.992462 0.2241,-0.481658 0.40746,-0.896212 0.40746,-0.921232 0,-0.02502 0.12835,-0.328987 0.28522,-0.675481 0.15686,-0.346495 1.21039,-2.724142 2.34117,-5.283658 1.92116,-4.348541 4.64227,-10.490157 5.12822,-11.574505 0.11764,-0.262515 0.56262,-1.282742 0.98884,-2.267171 2.643181,-6.104886 2.906501,-6.68127 3.476611,-7.610013 0.22619,-0.368483 0.99468,-0.490972 3.113168,-0.496206 2.79882,-0.0069 3.72928,0.284006 5.11037,1.597822 0.7528,0.716128 1.35266,1.804759 1.64663,2.988315 0.21156,0.851773 0.21251,4.055231 0.002,5.250291 -0.7098,4.020971 -2.28573,8.270211 -4.55819,12.290454 -3.03759,5.373849 -7.784539,10.177461 -12.173669,12.318989 -2.19223,1.069628 -3.88656,1.489752 -6.43383,1.595326 -1.42127,0.0589 -1.77137,0.0403 -1.9607,-0.104203 z"
       style="display:inline;mix-blend-mode:normal;fill:#00ff00;stroke:#5bfa00;stroke-width:10;stroke-dasharray:none;stroke-opacity:1;filter:url(#filter3929)"
       id="path13978"
       inkscape:label="QD green glow" /><path
       d="m 49.094741,114.47501 c 0.22717,-0.24611 0.8006,-1.14552 1.27427,-1.99869 1.46844,-2.64494 3.91874,-6.84808 5.91282,-10.1426 1.27621,-2.10848 1.54955,-2.733898 1.54966,-3.545748 5e-5,-0.37507 -0.0765,-0.91203 -0.17011,-1.19324 -0.0936,-0.28122 -0.55274,-1.746315 -1.02028,-3.255773 -0.46753,-1.509459 -0.89581,-2.851862 -0.95173,-2.98312 -0.0559,-0.131257 -0.43645,-1.366269 -0.84562,-2.74447 -0.40918,-1.378201 -0.83662,-2.801149 -0.94988,-3.162107 -0.11326,-0.360957 -0.29151,-0.951615 -0.39612,-1.312572 -0.10461,-0.360958 -0.38046,-1.29402 -0.61299,-2.073472 -0.60454,-2.026407 -0.60674,-2.013288 0.4935,-2.941094 1.69245,-1.427199 2.12051,-1.813138 3.49872,-3.154483 2.38719,-2.323319 4.95383,-5.235561 6.26924,-7.11339 0.24943,-0.356081 0.65444,-0.915901 0.90001,-1.244044 1.17028,-1.563782 3.29095,-5.333901 4.22853,-7.517461 0.30997,-0.721915 0.68912,-1.591251 0.84256,-1.931859 0.52469,-1.16475 1.45777,-4.152381 1.819,-5.824254 0.75396,-3.489603 0.73527,-6.767939 -0.0575,-10.082944 -0.95613,-3.998072 -4.16373,-8.207165 -8.09525,-10.622795 -2.19913,-1.3512 -4.6335,-2.153751 -8.17375,-2.694678 -1.64821,-0.251836 -5.76792,-0.286466 -7.87544,-0.0662 -7.00599,0.732228 -13.58154,3.160652 -18.972637,7.006805 -3.49263,2.491738 -7.2197,6.122669 -9.995594,9.737765 -2.179852,2.838859 -4.59494,7.020981 -5.811253,10.063141 -0.183677,0.459401 -0.42706,1.050059 -0.540851,1.312573 -0.430427,0.992991 -1.5180794,4.719601 -1.7761404,6.085565 -0.336281,1.780005 -0.3965456,2.42764 -0.4552496,4.892316 -0.08009,3.362436 0.09449,4.738464 0.998616,7.871088 2.023004,7.009337 8.046572,11.61804 16.163624,12.366978 3.392395,0.313007 7.412245,-0.01023 10.687935,-0.85942 0.7348,-0.190489 1.43908,-0.346342 1.56507,-0.346342 0.28888,0 0.39971,0.298561 2.104,5.667927 0.22914,0.721915 0.62917,2.010623 0.88896,2.863795 0.25979,0.853172 0.90886,2.974165 1.44239,4.713323 0.53353,1.73916 1.03974,3.40374 1.12492,3.69907 0.15089,0.52315 0.62419,2.05402 1.38344,4.47468 0.20585,0.65629 0.58582,1.8913 0.84438,2.74447 0.52315,1.72622 0.99649,3.00583 1.21706,3.29009 0.45259,0.58332 0.96605,0.59061 1.49169,0.0212 z m -1.09262,-2.86379 c -0.78587,-2.39787 -5.05558,-16.273292 -6.93059,-22.522552 -0.63011,-2.100116 -1.19536,-3.93643 -1.25611,-4.080697 l -0.11046,-0.262305 -0.70804,0.287704 c -1.14391,0.464812 -3.39738,1.114053 -4.95482,1.427517 -4.46545,0.898759 -9.310481,0.583288 -13.017213,-0.84758 -5.663163,-2.186089 -9.146825,-6.527363 -10.3501,-12.898103 -0.359949,-1.905746 -0.387598,-5.975461 -0.05414,-7.968792 2.265517,-13.542686 12.471405,-26.369471 25.135853,-31.590796 7.18987,-2.964258 15.18274,-3.851012 21.3856,-2.372584 3.47832,0.829045 6.50788,2.723473 8.89806,5.56408 2.14767,2.552396 3.17108,4.714533 3.66952,7.752553 0.84121,5.127181 -0.27784,10.276068 -3.73525,17.186328 -1.33628,2.670783 -3.52829,6.095408 -5.37229,8.393225 -2.10006,2.6169 -5.61802,6.130084 -8.43849,8.427035 -0.78754,0.641364 -1.4781,1.208708 -1.53457,1.260765 -0.0565,0.05205 0.0691,0.676686 0.27902,1.388067 1.30753,4.430628 2.93938,9.834402 4.03004,13.345224 0.86791,2.793783 1.26248,4.244563 1.26719,4.659273 0.006,0.57185 -0.10504,0.79166 -2.2101,4.355358 -1.21932,2.06421 -2.88639,4.90758 -3.70459,6.3186 -1.76637,3.04618 -1.80091,3.10244 -1.90462,3.10244 -0.0445,0 -0.21721,-0.41614 -0.3839,-0.92476 z M 36.024981,75.122761 c 0.63988,-0.117071 1.16341,-0.263802 1.16341,-0.326068 0,-0.06227 -0.37108,-1.328825 -0.82462,-2.814575 -2.26328,-7.414236 -3.60222,-12.137348 -3.50937,-12.379318 0.039,-0.101543 0.20126,-0.234206 0.36066,-0.294806 0.47082,-0.179009 11.28304,-0.142443 11.52383,0.03897 0.1618,0.121903 1.6925,5.361544 2.87791,9.851139 l 0.13571,0.513975 0.73784,-0.667717 c 1.93227,-1.748599 4.27451,-5.346337 5.53797,-8.506424 0.50572,-1.264894 0.89792,-2.598322 1.20138,-4.0846 0.34477,-1.688548 0.36907,-4.407615 0.0517,-5.787253 -0.73757,-3.206487 -3.08138,-5.796091 -6.04121,-6.674757 -2.37813,-0.705979 -6.02004,-0.376132 -9.27488,0.840024 -6.04524,2.258773 -10.99135,6.911917 -14.18444,13.344256 -1.597271,3.217635 -2.244063,5.743002 -2.233001,8.718649 0.0076,2.038714 0.22755,3.117585 0.895652,4.392817 0.463988,0.885632 1.932439,2.403118 2.781246,2.874115 0.787153,0.436787 2.433183,0.984901 3.400753,1.132426 1.11904,0.170619 4.03787,0.07826 5.39945,-0.170855 z m -5.04147,-1.205841 c -2.25063,-0.30186 -4.386231,-1.662961 -5.217904,-3.325563 -0.731217,-1.461784 -0.808673,-1.848946 -0.799323,-3.995411 0.0079,-1.813022 0.03811,-2.079381 0.381677,-3.365213 1.340509,-5.016934 4.56616,-9.817271 9.21529,-13.713978 1.94723,-1.632089 5.50638,-3.324284 8.53172,-4.056404 1.56613,-0.378997 4.52707,-0.382341 5.72759,-0.0065 2.61458,0.818603 4.34556,2.616992 5.01682,5.212203 0.49887,1.928691 0.29701,5.136286 -0.48435,7.69645 -0.77849,2.550766 -2.74694,6.187431 -4.12332,7.617736 -0.40837,0.424367 -0.52467,0.489023 -0.6439,0.357975 -0.21268,-0.233771 -0.55661,-1.285451 -1.32055,-4.037993 -1.03757,-3.738404 -1.13787,-3.942753 -2.14097,-4.361875 -0.41383,-0.172908 -1.17686,-0.199044 -6.26292,-0.214513 -6.40936,-0.01949 -6.39722,-0.02075 -7.05418,0.727482 -0.3724,0.424139 -0.37822,0.449091 -0.31139,1.335119 0.0738,0.979015 0.48844,2.521462 1.99068,7.406103 0.53486,1.739159 1.05199,3.457436 1.14916,3.818393 0.38839,1.442685 0.64156,2.435769 0.64156,2.516621 0,0.286934 -3.01905,0.560564 -4.29569,0.389336 z m 47.96856,16.018558 c 5.71653,-0.04709 7.09174,-0.129522 9.12834,-0.547167 0.32815,-0.06729 0.90359,-0.17655 1.27877,-0.242793 0.7723,-0.136362 4.25961,-1.25846 5.16477,-1.661847 0.86507,-0.385521 3.637841,-1.756597 4.057041,-2.006124 0.19689,-0.117195 0.73385,-0.434841 1.19325,-0.70588 3.735128,-2.203678 8.288458,-6.202722 11.999668,-10.538934 1.0604,-1.238981 3.46981,-4.372408 4.33199,-5.633744 0.86682,-1.268111 2.46199,-3.769058 2.46199,-3.859964 0,-0.03136 0.13291,-0.267561 0.29535,-0.524891 0.57011,-0.90311 2.56083,-4.930976 3.29415,-6.66511 2.75961,-6.525882 3.89676,-11.29734 4.11448,-17.264194 0.23743,-6.507427 -1.25593,-11.4951 -4.40519,-14.712853 -1.15288,-1.177959 -1.82062,-1.674041 -3.29879,-2.450788 -3.0517,-1.603596 -6.12554,-2.269632 -11.45518,-2.482095 -3.52767,-0.140628 -15.220689,-0.04625 -16.460559,0.13286 -1.61326,0.233046 -2.77281,0.90953 -3.58671,2.092494 -0.44111,0.641137 -1.57969,2.926001 -2.31846,4.65263 -0.30888,0.721915 -0.66953,1.549455 -0.80143,1.838976 -0.32658,0.716817 -1.41133,3.208443 -1.58903,3.649964 -0.0792,0.196886 -0.23767,0.572759 -0.35206,0.835274 -0.11439,0.262514 -0.50483,1.175349 -0.86765,2.028521 -0.80847,1.901124 -2.48706,5.733051 -3.73735,8.531722 -1.10402,2.471246 -2.23736,5.060203 -3.57814,8.173748 -0.53697,1.246944 -1.27259,2.938373 -1.63471,3.758731 -0.92775,2.101754 -1.31841,2.990742 -2.35965,5.369616 -0.5027,1.148501 -1.04934,2.381402 -1.21476,2.73978 -0.16542,0.358376 -0.8542,1.942413 -1.53064,3.520081 -0.67643,1.577667 -1.61669,3.727624 -2.08945,4.777682 -0.47276,1.050058 -1.18267,2.660942 -1.57757,3.579743 -0.5727,1.332472 -2.78824,6.285735 -4.2965,9.605646 -0.72486,1.595513 -0.86798,2.629837 -0.45712,3.303647 0.29082,0.476963 0.60342,0.645666 1.36971,0.7392 0.59462,0.07258 7.49324,0.06021 18.92144,-0.03393 z m -18.78148,-1.448302 c -0.0965,-0.09654 -0.20745,-0.276096 -0.24646,-0.399008 -0.0459,-0.144638 1.0509,-2.764853 3.10901,-7.427262 1.74896,-3.962081 3.86434,-8.760973 4.70085,-10.664203 0.8365,-1.903231 2.71508,-6.172075 4.17463,-9.486321 1.45954,-3.314247 3.20517,-7.287762 3.87918,-8.830035 2.69923,-6.176417 9.55075,-21.592478 11.28659,-25.395076 0.54894,-1.202523 1.17576,-2.39399 1.39293,-2.647704 0.21717,-0.253713 0.68866,-0.605046 1.04776,-0.780739 0.59631,-0.291745 0.83139,-0.32804 2.71157,-0.418654 2.92657,-0.141043 16.662259,-0.134409 18.585129,0.009 4.40805,0.328702 7.57024,1.590418 9.94808,3.969296 1.92345,1.924283 3.23077,4.62516 3.83867,7.930572 0.261,1.419165 0.3597,5.194563 0.18689,7.149 -0.52279,5.91276 -2.28184,11.750124 -5.49612,18.238756 -3.26174,6.584435 -7.27045,12.220588 -12.17879,17.123107 -6.53349,6.525758 -13.701779,10.462775 -20.760309,11.402119 -1.8635,0.247994 -3.31732,0.280494 -15.47803,0.346005 -9.15725,0.04933 -10.54887,0.03388 -10.70158,-0.118826 z m 26.78812,-12.529882 c 4.14043,-0.660158 8.08961,-2.959467 11.947121,-6.955894 8.020578,-8.309424 12.802398,-22.343881 9.581508,-28.121349 -1.43123,-2.567276 -3.31143,-3.605893 -6.74425,-3.725504 -2.169318,-0.07559 -4.530808,0.116033 -4.726398,0.383519 -0.0798,0.109173 -0.533311,1.094034 -1.007731,2.18858 -0.47442,1.094544 -2.04302,4.674889 -3.48578,7.956321 -1.44276,3.281431 -2.98647,6.79853 -3.43046,7.815773 -2.43656,5.582429 -4.39246,10.038967 -6.44145,14.67695 -1.26123,2.854845 -2.36772,5.363052 -2.45888,5.573793 l -0.16572,0.383165 1.04375,0.04825 c 1.72373,0.07968 4.69342,-0.03309 5.88829,-0.223602 z m -4.12042,-1.39815 c -0.22605,-0.172518 -0.22393,-0.194049 0.10989,-1.116266 0.3799,-1.049529 1.88972,-4.64375 2.51726,-5.992462 0.2241,-0.481658 0.40746,-0.896212 0.40746,-0.921232 0,-0.02502 0.12835,-0.328987 0.28522,-0.675481 0.15686,-0.346495 1.21039,-2.724142 2.34117,-5.283658 1.92116,-4.348541 4.64227,-10.490157 5.12822,-11.574505 0.11764,-0.262515 0.56262,-1.282742 0.98884,-2.267171 2.643181,-6.104886 2.906501,-6.68127 3.476611,-7.610013 0.22619,-0.368483 0.99468,-0.490972 3.113168,-0.496206 2.79882,-0.0069 3.72928,0.284006 5.11037,1.597822 0.7528,0.716128 1.35266,1.804759 1.64663,2.988315 0.21156,0.851773 0.21251,4.055231 0.002,5.250291 -0.7098,4.020971 -2.28573,8.270211 -4.55819,12.290454 -3.03759,5.373849 -7.784539,10.177461 -12.173669,12.318989 -2.19223,1.069628 -3.88656,1.489752 -6.43383,1.595326 -1.42127,0.0589 -1.77137,0.0403 -1.9607,-0.104203 z"
       style="display:inline;opacity:0.71;fill:#ffff00;stroke:#e4ec00;stroke-width:2.5;stroke-dasharray:none;stroke-opacity:1;filter:url(#filter5753)"
       id="path4507"
       inkscape:label="QD yellow" /><path
       d="m 49.094741,114.47501 c 0.22717,-0.24611 0.8006,-1.14552 1.27427,-1.99869 1.46844,-2.64494 3.91874,-6.84808 5.91282,-10.1426 1.27621,-2.10848 1.54955,-2.733898 1.54966,-3.545748 5e-5,-0.37507 -0.0765,-0.91203 -0.17011,-1.19324 -0.0936,-0.28122 -0.55274,-1.746315 -1.02028,-3.255773 -0.46753,-1.509459 -0.89581,-2.851862 -0.95173,-2.98312 -0.0559,-0.131257 -0.43645,-1.366269 -0.84562,-2.74447 -0.40918,-1.378201 -0.83662,-2.801149 -0.94988,-3.162107 -0.11326,-0.360957 -0.29151,-0.951615 -0.39612,-1.312572 -0.10461,-0.360958 -0.38046,-1.29402 -0.61299,-2.073472 -0.60454,-2.026407 -0.60674,-2.013288 0.4935,-2.941094 1.69245,-1.427199 2.12051,-1.813138 3.49872,-3.154483 2.38719,-2.323319 4.95383,-5.235561 6.26924,-7.11339 0.24943,-0.356081 0.65444,-0.915901 0.90001,-1.244044 1.17028,-1.563782 3.29095,-5.333901 4.22853,-7.517461 0.30997,-0.721915 0.68912,-1.591251 0.84256,-1.931859 0.52469,-1.16475 1.45777,-4.152381 1.819,-5.824254 0.75396,-3.489603 0.73527,-6.767939 -0.0575,-10.082944 -0.95613,-3.998072 -4.16373,-8.207165 -8.09525,-10.622795 -2.19913,-1.3512 -4.6335,-2.153751 -8.17375,-2.694678 -1.64821,-0.251836 -5.76792,-0.286466 -7.87544,-0.0662 -7.00599,0.732228 -13.58154,3.160652 -18.972637,7.006805 -3.49263,2.491738 -7.2197,6.122669 -9.995594,9.737765 -2.179852,2.838859 -4.59494,7.020981 -5.811253,10.063141 -0.183677,0.459401 -0.42706,1.050059 -0.540851,1.312573 -0.430427,0.992991 -1.5180794,4.719601 -1.7761404,6.085565 -0.336281,1.780005 -0.3965456,2.42764 -0.4552496,4.892316 -0.08009,3.362436 0.09449,4.738464 0.998616,7.871088 2.023004,7.009337 8.046572,11.61804 16.163624,12.366978 3.392395,0.313007 7.412245,-0.01023 10.687935,-0.85942 0.7348,-0.190489 1.43908,-0.346342 1.56507,-0.346342 0.28888,0 0.39971,0.298561 2.104,5.667927 0.22914,0.721915 0.62917,2.010623 0.88896,2.863795 0.25979,0.853172 0.90886,2.974165 1.44239,4.713323 0.53353,1.73916 1.03974,3.40374 1.12492,3.69907 0.15089,0.52315 0.62419,2.05402 1.38344,4.47468 0.20585,0.65629 0.58582,1.8913 0.84438,2.74447 0.52315,1.72622 0.99649,3.00583 1.21706,3.29009 0.45259,0.58332 0.96605,0.59061 1.49169,0.0212 z m -1.09262,-2.86379 c -0.78587,-2.39787 -5.05558,-16.273292 -6.93059,-22.522552 -0.63011,-2.100116 -1.19536,-3.93643 -1.25611,-4.080697 l -0.11046,-0.262305 -0.70804,0.287704 c -1.14391,0.464812 -3.39738,1.114053 -4.95482,1.427517 -4.46545,0.898759 -9.310481,0.583288 -13.017213,-0.84758 -5.663163,-2.186089 -9.146825,-6.527363 -10.3501,-12.898103 -0.359949,-1.905746 -0.387598,-5.975461 -0.05414,-7.968792 2.265517,-13.542686 12.471405,-26.369471 25.135853,-31.590796 7.18987,-2.964258 15.18274,-3.851012 21.3856,-2.372584 3.47832,0.829045 6.50788,2.723473 8.89806,5.56408 2.14767,2.552396 3.17108,4.714533 3.66952,7.752553 0.84121,5.127181 -0.27784,10.276068 -3.73525,17.186328 -1.33628,2.670783 -3.52829,6.095408 -5.37229,8.393225 -2.10006,2.6169 -5.61802,6.130084 -8.43849,8.427035 -0.78754,0.641364 -1.4781,1.208708 -1.53457,1.260765 -0.0565,0.05205 0.0691,0.676686 0.27902,1.388067 1.30753,4.430628 2.93938,9.834402 4.03004,13.345224 0.86791,2.793783 1.26248,4.244563 1.26719,4.659273 0.006,0.57185 -0.10504,0.79166 -2.2101,4.355358 -1.21932,2.06421 -2.88639,4.90758 -3.70459,6.3186 -1.76637,3.04618 -1.80091,3.10244 -1.90462,3.10244 -0.0445,0 -0.21721,-0.41614 -0.3839,-0.92476 z M 36.024981,75.122761 c 0.63988,-0.117071 1.16341,-0.263802 1.16341,-0.326068 0,-0.06227 -0.37108,-1.328825 -0.82462,-2.814575 -2.26328,-7.414236 -3.60222,-12.137348 -3.50937,-12.379318 0.039,-0.101543 0.20126,-0.234206 0.36066,-0.294806 0.47082,-0.179009 11.28304,-0.142443 11.52383,0.03897 0.1618,0.121903 1.6925,5.361544 2.87791,9.851139 l 0.13571,0.513975 0.73784,-0.667717 c 1.93227,-1.748599 4.27451,-5.346337 5.53797,-8.506424 0.50572,-1.264894 0.89792,-2.598322 1.20138,-4.0846 0.34477,-1.688548 0.36907,-4.407615 0.0517,-5.787253 -0.73757,-3.206487 -3.08138,-5.796091 -6.04121,-6.674757 -2.37813,-0.705979 -6.02004,-0.376132 -9.27488,0.840024 -6.04524,2.258773 -10.99135,6.911917 -14.18444,13.344256 -1.597271,3.217635 -2.244063,5.743002 -2.233001,8.718649 0.0076,2.038714 0.22755,3.117585 0.895652,4.392817 0.463988,0.885632 1.932439,2.403118 2.781246,2.874115 0.787153,0.436787 2.433183,0.984901 3.400753,1.132426 1.11904,0.170619 4.03787,0.07826 5.39945,-0.170855 z m -5.04147,-1.205841 c -2.25063,-0.30186 -4.386231,-1.662961 -5.217904,-3.325563 -0.731217,-1.461784 -0.808673,-1.848946 -0.799323,-3.995411 0.0079,-1.813022 0.03811,-2.079381 0.381677,-3.365213 1.340509,-5.016934 4.56616,-9.817271 9.21529,-13.713978 1.94723,-1.632089 5.50638,-3.324284 8.53172,-4.056404 1.56613,-0.378997 4.52707,-0.382341 5.72759,-0.0065 2.61458,0.818603 4.34556,2.616992 5.01682,5.212203 0.49887,1.928691 0.29701,5.136286 -0.48435,7.69645 -0.77849,2.550766 -2.74694,6.187431 -4.12332,7.617736 -0.40837,0.424367 -0.52467,0.489023 -0.6439,0.357975 -0.21268,-0.233771 -0.55661,-1.285451 -1.32055,-4.037993 -1.03757,-3.738404 -1.13787,-3.942753 -2.14097,-4.361875 -0.41383,-0.172908 -1.17686,-0.199044 -6.26292,-0.214513 -6.40936,-0.01949 -6.39722,-0.02075 -7.05418,0.727482 -0.3724,0.424139 -0.37822,0.449091 -0.31139,1.335119 0.0738,0.979015 0.48844,2.521462 1.99068,7.406103 0.53486,1.739159 1.05199,3.457436 1.14916,3.818393 0.38839,1.442685 0.64156,2.435769 0.64156,2.516621 0,0.286934 -3.01905,0.560564 -4.29569,0.389336 z m 47.96856,16.018558 c 5.71653,-0.04709 7.09174,-0.129522 9.12834,-0.547167 0.32815,-0.06729 0.90359,-0.17655 1.27877,-0.242793 0.7723,-0.136362 4.25961,-1.25846 5.16477,-1.661847 0.86507,-0.385521 3.637841,-1.756597 4.057041,-2.006124 0.19689,-0.117195 0.73385,-0.434841 1.19325,-0.70588 3.735128,-2.203678 8.288458,-6.202722 11.999668,-10.538934 1.0604,-1.238981 3.46981,-4.372408 4.33199,-5.633744 0.86682,-1.268111 2.46199,-3.769058 2.46199,-3.859964 0,-0.03136 0.13291,-0.267561 0.29535,-0.524891 0.57011,-0.90311 2.56083,-4.930976 3.29415,-6.66511 2.75961,-6.525882 3.89676,-11.29734 4.11448,-17.264194 0.23743,-6.507427 -1.25593,-11.4951 -4.40519,-14.712853 -1.15288,-1.177959 -1.82062,-1.674041 -3.29879,-2.450788 -3.0517,-1.603596 -6.12554,-2.269632 -11.45518,-2.482095 -3.52767,-0.140628 -15.220689,-0.04625 -16.460559,0.13286 -1.61326,0.233046 -2.77281,0.90953 -3.58671,2.092494 -0.44111,0.641137 -1.57969,2.926001 -2.31846,4.65263 -0.30888,0.721915 -0.66953,1.549455 -0.80143,1.838976 -0.32658,0.716817 -1.41133,3.208443 -1.58903,3.649964 -0.0792,0.196886 -0.23767,0.572759 -0.35206,0.835274 -0.11439,0.262514 -0.50483,1.175349 -0.86765,2.028521 -0.80847,1.901124 -2.48706,5.733051 -3.73735,8.531722 -1.10402,2.471246 -2.23736,5.060203 -3.57814,8.173748 -0.53697,1.246944 -1.27259,2.938373 -1.63471,3.758731 -0.92775,2.101754 -1.31841,2.990742 -2.35965,5.369616 -0.5027,1.148501 -1.04934,2.381402 -1.21476,2.73978 -0.16542,0.358376 -0.8542,1.942413 -1.53064,3.520081 -0.67643,1.577667 -1.61669,3.727624 -2.08945,4.777682 -0.47276,1.050058 -1.18267,2.660942 -1.57757,3.579743 -0.5727,1.332472 -2.78824,6.285735 -4.2965,9.605646 -0.72486,1.595513 -0.86798,2.629837 -0.45712,3.303647 0.29082,0.476963 0.60342,0.645666 1.36971,0.7392 0.59462,0.07258 7.49324,0.06021 18.92144,-0.03393 z m -18.78148,-1.448302 c -0.0965,-0.09654 -0.20745,-0.276096 -0.24646,-0.399008 -0.0459,-0.144638 1.0509,-2.764853 3.10901,-7.427262 1.74896,-3.962081 3.86434,-8.760973 4.70085,-10.664203 0.8365,-1.903231 2.71508,-6.172075 4.17463,-9.486321 1.45954,-3.314247 3.20517,-7.287762 3.87918,-8.830035 2.69923,-6.176417 9.55075,-21.592478 11.28659,-25.395076 0.54894,-1.202523 1.17576,-2.39399 1.39293,-2.647704 0.21717,-0.253713 0.68866,-0.605046 1.04776,-0.780739 0.59631,-0.291745 0.83139,-0.32804 2.71157,-0.418654 2.92657,-0.141043 16.662259,-0.134409 18.585129,0.009 4.40805,0.328702 7.57024,1.590418 9.94808,3.969296 1.92345,1.924283 3.23077,4.62516 3.83867,7.930572 0.261,1.419165 0.3597,5.194563 0.18689,7.149 -0.52279,5.91276 -2.28184,11.750124 -5.49612,18.238756 -3.26174,6.584435 -7.27045,12.220588 -12.17879,17.123107 -6.53349,6.525758 -13.701779,10.462775 -20.760309,11.402119 -1.8635,0.247994 -3.31732,0.280494 -15.47803,0.346005 -9.15725,0.04933 -10.54887,0.03388 -10.70158,-0.118826 z m 26.78812,-12.529882 c 4.14043,-0.660158 8.08961,-2.959467 11.947121,-6.955894 8.020578,-8.309424 12.802398,-22.343881 9.581508,-28.121349 -1.43123,-2.567276 -3.31143,-3.605893 -6.74425,-3.725504 -2.169318,-0.07559 -4.530808,0.116033 -4.726398,0.383519 -0.0798,0.109173 -0.533311,1.094034 -1.007731,2.18858 -0.47442,1.094544 -2.04302,4.674889 -3.48578,7.956321 -1.44276,3.281431 -2.98647,6.79853 -3.43046,7.815773 -2.43656,5.582429 -4.39246,10.038967 -6.44145,14.67695 -1.26123,2.854845 -2.36772,5.363052 -2.45888,5.573793 l -0.16572,0.383165 1.04375,0.04825 c 1.72373,0.07968 4.69342,-0.03309 5.88829,-0.223602 z m -4.12042,-1.39815 c -0.22605,-0.172518 -0.22393,-0.194049 0.10989,-1.116266 0.3799,-1.049529 1.88972,-4.64375 2.51726,-5.992462 0.2241,-0.481658 0.40746,-0.896212 0.40746,-0.921232 0,-0.02502 0.12835,-0.328987 0.28522,-0.675481 0.15686,-0.346495 1.21039,-2.724142 2.34117,-5.283658 1.92116,-4.348541 4.64227,-10.490157 5.12822,-11.574505 0.11764,-0.262515 0.56262,-1.282742 0.98884,-2.267171 2.643181,-6.104886 2.906501,-6.68127 3.476611,-7.610013 0.22619,-0.368483 0.99468,-0.490972 3.113168,-0.496206 2.79882,-0.0069 3.72928,0.284006 5.11037,1.597822 0.7528,0.716128 1.35266,1.804759 1.64663,2.988315 0.21156,0.851773 0.21251,4.055231 0.002,5.250291 -0.7098,4.020971 -2.28573,8.270211 -4.55819,12.290454 -3.03759,5.373849 -7.784539,10.177461 -12.173669,12.318989 -2.19223,1.069628 -3.88656,1.489752 -6.43383,1.595326 -1.42127,0.0589 -1.77137,0.0403 -1.9607,-0.104203 z"
       style="display:inline;fill:#ffffff;stroke:none;stroke-width:0.119325"
       id="path1158"
       inkscape:label="QD" /><path
       style="fill:#000000;fill-opacity:1;stroke:none;stroke-width:10;stroke-dasharray:none;stroke-opacity:1"
       d="m 60.2321,88.281175 c -0.09923,-0.09923 0.03938,-0.738069 0.308033,-1.419638 1.33278,-3.381296 25.942247,-59.04589 27.276983,-61.698301 1.322753,-2.628598 0.560128,-2.489136 13.611384,-2.489136 10.23278,0 11.55005,0.04881 13.09687,0.485296 6.05446,1.708468 9.40782,6.059458 10.07191,13.068324 0.93199,9.836195 -3.75604,23.073688 -12.06629,34.071379 -6.88958,9.117592 -14.773574,14.951094 -23.327841,17.260671 l -2.591319,0.699632 -13.099652,0.101097 c -7.204811,0.0556 -13.180843,0.0199 -13.280078,-0.07932 z M 88.464459,75.722917 c 6.632173,-1.696222 13.030291,-7.803342 17.324261,-16.536317 2.89811,-5.894099 3.84824,-9.591371 3.65808,-14.234843 -0.093,-2.27072 -0.22205,-2.914443 -0.81415,-4.060783 -0.86918,-1.682779 -2.29804,-2.89675 -4.01103,-3.407806 -1.38734,-0.413904 -6.905635,-0.543989 -7.484098,-0.17643 -0.226526,0.143939 -14.904014,33.11145 -17.191699,38.614757 -0.242337,0.58297 6.034958,0.436642 8.518636,-0.198578 z"
       id="path4434"
       inkscape:label="D" /><path
       style="fill:#000000;fill-opacity:1;stroke:none;stroke-width:10;stroke-dasharray:none;stroke-opacity:1"
       d="m 47.088643,108.12214 c -0.738079,-2.32153 -2.643762,-8.486478 -4.234852,-13.699894 -1.591088,-5.213416 -2.952084,-9.538131 -3.024431,-9.610478 -0.07235,-0.07235 -1.108798,0.17717 -2.303219,0.554487 -3.531294,1.115536 -6.62472,1.551831 -9.784101,1.379945 -8.245862,-0.448617 -13.938344,-4.521515 -16.33097,-11.684601 -0.645156,-1.931482 -0.708221,-2.487035 -0.720834,-6.35 -0.01185,-3.629249 0.07532,-4.573129 0.610841,-6.614583 2.68347,-10.229543 9.238448,-19.393299 18.160754,-25.388448 3.896892,-2.618433 9.463249,-4.86016 14.561682,-5.864399 3.349541,-0.65976 9.8458,-0.667928 12.625203,-0.01588 4.905636,1.150871 9.196009,4.509537 11.501987,9.004186 3.684495,7.181559 1.006436,18.111911 -7.075709,28.879117 -1.712476,2.281396 -7.508201,8.182215 -9.586601,9.760436 -0.545703,0.414375 -0.992187,0.907648 -0.992187,1.096161 0,0.188513 0.964438,3.537897 2.143196,7.443076 3.309686,10.964877 3.459107,11.511197 3.31003,12.102467 -0.07684,0.30476 -1.670023,3.173488 -3.54041,6.374948 -1.870387,3.20146 -3.530688,6.05339 -3.689559,6.33763 -0.243033,0.43481 -0.501746,-0.15282 -1.63082,-3.70417 z M 37.043213,74.994385 c 0.196582,-0.196583 -0.274212,-2.154926 -1.583923,-6.588549 -2.310009,-7.819816 -2.488211,-8.506975 -2.289519,-8.828465 0.25242,-0.408424 11.109759,-0.339892 11.446237,0.07225 0.148508,0.181901 0.893125,2.555635 1.654704,5.274961 l 1.384689,4.944232 0.632979,-0.414745 c 0.973979,-0.638175 3.707151,-4.415301 4.873357,-6.73477 0.575612,-1.144837 1.35513,-3.15722 1.732259,-4.471961 0.598387,-2.086079 0.672838,-2.768008 0.584732,-5.355799 -0.09433,-2.770635 -0.159739,-3.074554 -0.996071,-4.628319 -2.527925,-4.69646 -7.327247,-5.908284 -14.316843,-3.614987 -4.707628,1.54458 -9.380219,5.28665 -12.537154,10.040451 -1.478534,2.226416 -3.072999,5.648386 -3.609761,7.747106 -0.71096,2.779826 -0.692612,6.640001 0.03926,8.260185 0.945941,2.094074 2.698746,3.598085 5.139088,4.409647 1.25444,0.417179 7.404745,0.329983 7.845965,-0.111236 z"
       id="path4505"
       inkscape:label="Q" /></g></svg>
